<?xml version="1.0" encoding="UTF-8"?>
<svg version="1.1" id="Layer_1" xmlns="http://www.w3.org/2000/svg" xmlns:xlink="http://www.w3.org/1999/xlink" x="0px" y="0px" viewBox="0 0 360 360" width="100" height="100" style="enable-background:new 0 0 360 360;" xml:space="preserve">
<style type="text/css">
	.st0{fill:#FFFFFF;}
</style>
    <g id="Page-1" stroke="none" stroke-width="1" fill="none" fill-rule="evenodd">
        <g id="Artboard" fill-rule="nonzero" fill="#FFFFFF">
            <g id="asset" transform="translate(77.000000, 62.000000)">
                <path d="M103.920533,22.2836978 C148.99928,22.2836978 185.57238,35.1539694 185.57238,50.9339967 L185.57238,53.056098 C185.57238,68.8366205 148.99928,81.706892 103.920533,81.706892 C58.8417851,81.706892 22.2686856,68.8366205 22.2686856,53.0565932 L22.2686856,50.9344919 C22.2686856,35.1539694 58.8417851,22.2836978 103.920533,22.2836978 Z M185.57238,84.9649667 L185.57238,97.2205054 C185.57238,113.001127 148.99928,125.8712 103.920533,125.8712 C58.8417851,125.8712 22.2686856,113.001127 22.2686856,97.2205054 L22.2686856,84.9649667 C39.8112633,97.9470529 71.9190459,103.99059 103.920533,103.99059 C135.922119,103.99059 168.029604,97.9470529 185.57238,84.9649667 Z M185.57238,129.53266 L185.57238,141.989742 C185.57238,157.769571 148.99928,170.640635 103.920533,170.640635 C58.8417851,170.640635 22.2686856,157.769571 22.2686856,141.989742 L22.2686856,129.531669 C39.8112633,142.514647 71.9190459,148.557986 103.920533,148.557986 C135.922119,148.557986 168.029604,142.514647 185.57238,129.53266 Z M185.57238,174.100055 L185.57238,186.759176 C185.57238,202.539006 148.99928,215.409079 103.920533,215.409079 C58.8417851,215.409079 22.2686856,202.539006 22.2686856,186.759176 L22.2686856,174.100055 C39.8112633,187.082042 71.9190459,193.125381 103.920533,193.125381 C135.922119,193.125381 168.029604,187.082042 185.57238,174.100055 Z M103.920533,0 C63.5826398,0 0,10.7982838 0,50.9339967 L0,186.758186 C0,226.902515 63.5724457,237.692777 103.920533,237.692777 C144.258525,237.692777 207.841065,226.894592 207.841065,186.759176 L207.841065,50.9339967 C207.841065,10.7899646 144.268422,0 103.920533,0 Z" id="Shape"></path>
            </g>
        </g>
    </g>
</svg>